# xmcd CD database file
#
# Track frame offsets:
#	150
#	40670
#	74903
#	92269
#	119819
#	133416
#	153727
#	163981
#	207152
#
# Disc length: 3126 seconds
#
# Revision: 1
# Processed by: cddbd v1.5.2PL0 Copyright (c) Steve Scherf et al.
# Submitted via: CDex 2.06
#
DISCID=8b0c3409
DTITLE=Le Grand Orchestre du TricoT - Atomic Spoutnik
DYEAR=2015
DGENRE=Jazz
TTITLE0=A.S. I
TTITLE1=A.S. II
TTITLE2=III
TTITLE3=A.S. IV
TTITLE4=A.S. V
TTITLE5=A.S. VI
TTITLE6=A.S. VII
TTITLE7=A.S. VIII
TTITLE8=A.S. IX
EXTD=YEAR: 2015
EXTT0=
EXTT1=
EXTT2=
EXTT3=
EXTT4=
EXTT5=
EXTT6=
EXTT7=
EXTT8=
PLAYORDER=
